<svg width="40" height="40" viewBox="0 0 40 40" fill="none" xmlns="http://www.w3.org/2000/svg">
<path fill-rule="evenodd" clip-rule="evenodd" d="M20.0003 38.3334C9.8751 38.3334 1.66699 30.1253 1.66699 20.0001C1.66699 9.87486 9.8751 1.66675 20.0003 1.66675C30.1255 1.66675 38.3337 9.87486 38.3337 20.0001C38.3337 30.1253 30.1255 38.3334 20.0003 38.3334ZM20.0003 35.0001C28.2846 35.0001 35.0003 28.2844 35.0003 20.0001C35.0003 11.7158 28.2846 5.00008 20.0003 5.00008C11.7161 5.00008 5.00033 11.7158 5.00033 20.0001C5.00033 28.2844 11.7161 35.0001 20.0003 35.0001ZM14.5122 27.8453L20.0004 22.3572L25.4885 27.8453L27.8456 25.4883L22.3574 20.0001L27.8456 14.512L25.4885 12.155L20.0004 17.6431L14.5122 12.155L12.1552 14.512L17.6434 20.0001L12.1552 25.4883L14.5122 27.8453Z" fill="white"/>
</svg>
