<svg width="40" height="40" viewBox="0 0 40 40" fill="none" xmlns="http://www.w3.org/2000/svg">
<path d="M39.5 20C39.5 30.7696 30.7696 39.5 20 39.5C9.23045 39.5 0.5 30.7696 0.5 20C0.5 9.23045 9.23045 0.5 20 0.5C30.7696 0.5 39.5 9.23045 39.5 20Z" fill="url(#paint0_linear)" stroke="url(#paint1_angular)"/>
<path d="M26.2108 12.4351C25.4447 12.4351 24.8428 13.0507 24.8428 13.8167C24.8428 14.5828 25.4584 15.1984 26.2108 15.1984C26.9768 15.1984 27.5924 14.5828 27.5924 13.8167C27.5924 13.0507 26.9768 12.4351 26.2108 12.4351Z" fill="white"/>
<path d="M20.0962 14.1997C16.9087 14.1997 14.3232 16.7852 14.3232 19.9726C14.3232 23.16 16.9087 25.7455 20.0962 25.7455C23.2836 25.7455 25.8691 23.16 25.8691 19.9726C25.8691 16.7852 23.2836 14.1997 20.0962 14.1997ZM20.0962 23.6799C18.0579 23.6799 16.4026 22.0246 16.4026 19.9863C16.4026 17.948 18.0579 16.2927 20.0962 16.2927C22.1345 16.2927 23.7897 17.948 23.7897 19.9863C23.7897 22.0246 22.1345 23.6799 20.0962 23.6799Z" fill="white"/>
<path d="M24.6786 31.6964H15.3215C11.4364 31.6964 8.27637 28.5363 8.27637 24.6512V15.2942C8.27637 11.4091 11.4364 8.24902 15.3215 8.24902H24.6786C28.5636 8.24902 31.7237 11.4091 31.7237 15.2942V24.6512C31.7237 28.5363 28.5636 31.6964 24.6786 31.6964ZM15.3215 10.4515C12.6539 10.4515 10.4788 12.6266 10.4788 15.2942V24.6512C10.4788 27.3188 12.6539 29.4939 15.3215 29.4939H24.6786C27.3461 29.4939 29.5212 27.3188 29.5212 24.6512V15.2942C29.5212 12.6266 27.3461 10.4515 24.6786 10.4515H15.3215Z" fill="white"/>
<defs>
<linearGradient id="paint0_linear" x1="34.1454" y1="5.85841" x2="5.85841" y2="34.1454" gradientUnits="userSpaceOnUse">
<stop offset="0.0011048" stop-color="#FBE18A"/>
<stop offset="0.2094" stop-color="#FCBB45"/>
<stop offset="0.3765" stop-color="#F75274"/>
<stop offset="0.5238" stop-color="#D53692"/>
<stop offset="0.7394" stop-color="#8F39CE"/>
<stop offset="1" stop-color="#5B4FE9"/>
</linearGradient>
<radialGradient id="paint1_angular" cx="0" cy="0" r="1" gradientUnits="userSpaceOnUse" gradientTransform="translate(20 20) rotate(90) scale(20)">
<stop offset="0.000243606" stop-color="#E24187"/>
<stop offset="0.199204" stop-color="#634DE6"/>
<stop offset="0.341255" stop-color="#634DE6"/>
<stop offset="0.42728" stop-color="#E24187"/>
<stop offset="0.532751" stop-color="#FCB847"/>
<stop offset="0.677824" stop-color="#FCDE85"/>
<stop offset="0.867831" stop-color="#FCB847"/>
</radialGradient>
</defs>
</svg>
