<svg width="40" height="40" viewBox="0 0 40 40" fill="none" xmlns="http://www.w3.org/2000/svg">
<path d="M39.5 20C39.5 30.7696 30.7696 39.5 20 39.5C9.23045 39.5 0.5 30.7696 0.5 20C0.5 9.23045 9.23045 0.5 20 0.5C30.7696 0.5 39.5 9.23045 39.5 20Z" fill="url(#paint0_linear)" stroke="url(#paint1_angular)"/>
<path fill-rule="evenodd" clip-rule="evenodd" d="M25.4179 16.3336C27.0595 17.4964 29.0567 18.1941 31.2318 18.1941V14.0354C30.8214 14.0354 30.4111 13.9944 30.0143 13.9123V17.1955C27.8529 17.1955 25.842 16.5115 24.2004 15.335V23.8302C24.2004 28.0847 20.753 31.532 16.4986 31.532C14.9117 31.532 13.4343 31.0532 12.2168 30.2324C13.6121 31.6688 15.5684 32.5443 17.7298 32.5443C21.9842 32.5443 25.4316 29.097 25.4316 24.8425L25.4179 16.3336ZM26.9227 12.1339C26.0882 11.2173 25.541 10.0409 25.4179 8.74129V8.19409H24.2688C24.5424 9.84936 25.541 11.2721 26.9227 12.1339ZM14.8981 26.9492C14.4329 26.3336 14.173 25.5812 14.173 24.8152C14.173 22.8726 15.7462 21.2994 17.7024 21.2994C18.0718 21.2994 18.4275 21.3541 18.7695 21.4636V17.2091C18.3591 17.1544 17.9624 17.1271 17.552 17.1407V20.4513C17.21 20.3418 16.8406 20.2871 16.4849 20.2871C14.5424 20.2871 12.9555 21.8603 12.9555 23.8028C12.9555 25.1845 13.7353 26.3747 14.8981 26.9492Z" fill="#EE1D52"/>
<path fill-rule="evenodd" clip-rule="evenodd" d="M24.187 15.3213C25.8286 16.4841 27.8259 17.1818 30.001 17.1818V13.8986C28.7971 13.6387 27.7164 13.0094 26.923 12.1339C25.5413 11.2721 24.5564 9.86304 24.2691 8.19409H21.2322V24.8288C21.2185 26.7714 19.6453 28.3446 17.7027 28.3446C16.5536 28.3446 15.5413 27.7974 14.8984 26.9492C13.7493 26.3747 12.9558 25.1845 12.9558 23.8028C12.9558 21.8603 14.529 20.2871 16.4852 20.2871C16.8546 20.2871 17.224 20.3418 17.5523 20.4513V17.1407C13.3662 17.2228 10.0146 20.6428 10.0146 24.8425C10.0146 26.9355 10.8491 28.837 12.2171 30.2187C13.4483 31.0395 14.9121 31.5183 16.4989 31.5183C20.7534 31.5183 24.2007 28.071 24.2007 23.8165V15.3213H24.187Z" fill="white"/>
<path fill-rule="evenodd" clip-rule="evenodd" d="M30.0007 13.8987V13.0095C28.9063 13.0095 27.8393 12.7086 26.9227 12.134C27.7298 13.0232 28.8106 13.6388 30.0007 13.8987ZM24.2552 8.1942C24.2278 8.03004 24.2004 7.87956 24.1868 7.7154V7.18188H20.0007V23.8166C20.0007 25.7592 18.4138 27.3324 16.4713 27.3324C15.8967 27.3324 15.3632 27.1956 14.8844 26.963C15.5274 27.8112 16.5397 28.3584 17.6888 28.3584C19.6313 28.3584 21.2045 26.7852 21.2182 24.8426V8.1942H24.2552ZM17.552 17.1408V16.1969C17.1963 16.1559 16.8543 16.1285 16.4987 16.1285C12.2442 16.1285 8.79688 19.5759 8.79688 23.8303C8.79688 26.4979 10.1512 28.8508 12.2168 30.2325C10.8625 28.8508 10.0281 26.9493 10.0281 24.8563C10.0007 20.6292 13.366 17.2229 17.552 17.1408Z" fill="#69C9D0"/>
<defs>
<linearGradient id="paint0_linear" x1="5.85841" y1="5.85841" x2="34.1454" y2="34.1454" gradientUnits="userSpaceOnUse">
<stop stop-color="#22004A"/>
<stop offset="0.9565" stop-color="#020003"/>
<stop offset="1"/>
</linearGradient>
<radialGradient id="paint1_angular" cx="0" cy="0" r="1" gradientUnits="userSpaceOnUse" gradientTransform="translate(20 20) rotate(90) scale(20)">
<stop offset="0.000243606" stop-color="#69C9D0"/>
<stop offset="0.247604" stop-color="#69C9D0"/>
<stop offset="0.634175" stop-color="#EE1D52"/>
</radialGradient>
</defs>
</svg>
