<svg width="40" height="40" viewBox="0 0 40 40" fill="none" xmlns="http://www.w3.org/2000/svg">
<path d="M39.5 20C39.5 30.7696 30.7696 39.5 20 39.5C9.23045 39.5 0.5 30.7696 0.5 20C0.5 9.23045 9.23045 0.5 20 0.5C30.7696 0.5 39.5 9.23045 39.5 20Z" fill="url(#paint0_linear)" stroke="url(#paint1_angular)"/>
<path d="M31.0527 13.1464C30.355 13.461 29.589 13.6526 28.8503 13.7757C29.2059 13.721 29.7258 13.078 29.931 12.8181C30.2456 12.4214 30.5192 11.9699 30.6697 11.4775C30.6834 11.4364 30.697 11.3954 30.6697 11.368C30.6286 11.3543 30.5876 11.3543 30.5466 11.3817C29.7121 11.8331 28.8503 12.1478 27.9337 12.3803C27.8516 12.394 27.7969 12.3803 27.7559 12.3393C27.6738 12.2572 27.6054 12.1751 27.5233 12.1067C27.1403 11.7784 26.7299 11.5185 26.2511 11.327C25.6355 11.0807 24.9652 10.9713 24.3085 11.0123C23.6656 11.0534 23.0363 11.2312 22.4617 11.5322C21.8872 11.8194 21.381 12.2435 20.9706 12.736C20.5466 13.2558 20.2456 13.8714 20.0814 14.5144C19.931 15.1437 19.9446 15.7593 20.0404 16.3885C20.0541 16.498 20.0404 16.5117 19.9446 16.498C16.3468 15.9645 13.3783 14.6785 10.957 11.9289C10.8612 11.8058 10.8065 11.8058 10.7107 11.9426C9.65737 13.5294 10.1635 16.0739 11.4905 17.3324C11.6683 17.4966 11.8462 17.6608 12.0377 17.8249C11.9693 17.8386 11.0938 17.7428 10.3003 17.3324C10.1909 17.264 10.1362 17.3051 10.1362 17.4282C10.1225 17.606 10.1362 17.7565 10.1635 17.948C10.3687 19.5486 11.4768 21.0397 13.0089 21.6279C13.1868 21.71 13.392 21.7647 13.5835 21.8058C13.2415 21.8878 12.8721 21.9426 11.8872 21.8605C11.7641 21.8331 11.7094 21.9015 11.7641 22.011C12.5165 24.0493 14.1307 24.6512 15.3345 25.0069C15.4987 25.0342 15.6628 25.0342 15.827 25.0753C15.8133 25.0889 15.8133 25.0889 15.7996 25.1026C15.4029 25.7182 14.0076 26.1697 13.3646 26.4022C12.1881 26.8126 10.9022 27.0041 9.65737 26.881C9.45217 26.8536 9.41113 26.8536 9.35641 26.881C9.30169 26.9084 9.34273 26.9631 9.41113 27.0178C9.65737 27.182 9.91729 27.3324 10.1772 27.4692C10.9706 27.8933 11.7914 28.2216 12.6533 28.4542C17.1129 29.6854 22.1198 28.7825 25.4713 25.4583C28.0979 22.8454 29.0144 19.2476 29.0144 15.6498C29.0144 15.513 29.1786 15.4309 29.2743 15.3625C29.9583 14.8427 30.5055 14.2408 31.0117 13.5431C31.1211 13.3926 31.1211 13.2558 31.1211 13.2011C31.1211 13.1874 31.1211 13.1874 31.1211 13.1874C31.1485 13.0917 31.1348 13.1054 31.0527 13.1464Z" fill="white"/>
<defs>
<linearGradient id="paint0_linear" x1="34.1453" y1="5.85841" x2="5.85841" y2="34.1454" gradientUnits="userSpaceOnUse">
<stop stop-color="#33CCFF"/>
<stop offset="1" stop-color="#337FFF"/>
</linearGradient>
<radialGradient id="paint1_angular" cx="0" cy="0" r="1" gradientUnits="userSpaceOnUse" gradientTransform="translate(20 20) rotate(90) scale(20)">
<stop offset="0.000243606" stop-color="#0055CC"/>
<stop offset="0.285566" stop-color="#338DFF"/>
<stop offset="0.538003" stop-color="#33BBFF"/>
<stop offset="0.822949" stop-color="#33CBFF"/>
</radialGradient>
</defs>
</svg>
