<svg width="24" height="24" viewBox="0 0 24 24" fill="none" xmlns="http://www.w3.org/2000/svg">
<path fill-rule="evenodd" clip-rule="evenodd" d="M15 1H9C7.89543 1 7 1.89543 7 3V4H4C2.89543 4 2 4.89543 2 6V8C2 9.10457 2.89543 10 4 10H4.07987L5.00345 21.083C5 22.1046 5.89543 23 7 23H17C18.1046 23 19 22.1046 19 21L19.9199 10H20C21.1046 10 22 9.10457 22 8V6C22 4.89543 21.1046 4 20 4H17V3C17 1.89543 16.1046 1 15 1ZM7 6H4V8H11.5143C11.2586 8.30918 11.0731 8.63783 10.9608 9.0022C10.8617 9.32407 10.8257 9.65531 10.836 10H10.491L10.1307 9.10495L9.0285 10H6.08649L7 21H17L17.0035 20.917L17.9132 10H15.3295C14.7421 9.15075 14.493 8.66099 14.3356 8H20V6H17H7ZM15 4V3H9V4H15Z" fill="#8397FF"/>
<path fill-rule="evenodd" clip-rule="evenodd" d="M11.5219 13.0194C11.8431 12.5686 11.8073 12.0937 11.5846 11.2396C11.144 9.55029 11.3194 8.62439 12.8381 7.52819L13.5794 6.99316L13.7586 7.88958C13.9492 8.84224 14.2621 9.43147 15.0655 10.5649C15.0974 10.6099 15.0974 10.6099 15.1295 10.6551C16.2867 12.2878 16.7094 13.272 16.7094 15.0594C16.7094 17.2277 14.5175 19.1745 12.0064 19.1745C9.49527 19.1745 7.30343 17.2279 7.30343 15.0594C7.30343 15.0188 7.30348 15.0201 7.29661 14.8409C7.24349 13.4555 7.49967 12.3712 8.53625 11.2005C8.75526 10.9531 9.00421 10.7154 9.28435 10.4879L9.90279 9.98569L10.2003 10.7247C10.4201 11.2708 10.6777 11.7001 10.9686 12.0151C11.215 12.2819 11.3978 12.6174 11.5219 13.0194ZM9.41658 11.9797C8.61862 12.881 8.42891 13.6839 8.47154 14.7957C8.47947 15.0027 8.47923 14.9954 8.47923 15.0592C8.47923 16.5453 10.1156 17.9986 12.0065 17.9986C13.8972 17.9986 15.5337 16.545 15.5337 15.0592C15.5337 13.5649 15.1997 12.7871 14.1703 11.3348C14.1384 11.2899 14.1384 11.2899 14.1063 11.2446C13.4812 10.3627 13.1086 9.74928 12.862 9.06319C12.4594 9.54563 12.4831 10.0255 12.7223 10.9427C13.1628 12.632 12.9874 13.5579 11.4687 14.6541L10.6028 15.2791L10.5379 14.2131C10.4964 13.5321 10.3422 13.0696 10.1049 12.8126C9.87047 12.5588 9.65878 12.2616 9.46894 11.9216C9.45124 11.9409 9.43378 11.9603 9.41658 11.9797Z" fill="#8397FF"/>
</svg>
