<svg width="152" height="152" viewBox="0 0 152 152" fill="none" xmlns="http://www.w3.org/2000/svg">
<path fill-rule="evenodd" clip-rule="evenodd" d="M76.0006 151.167C34.4872 151.167 0.833984 117.514 0.833984 76.0002C0.833984 34.4868 34.4872 0.833496 76.0006 0.833496C117.514 0.833496 151.167 34.4868 151.167 76.0002C151.167 117.514 117.514 151.167 76.0006 151.167ZM76 145C114.108 145 145 114.108 145 76C145 37.8923 114.108 7 76 7C37.8923 7 7 37.8923 7 76C7 114.108 37.8923 145 76 145ZM102.515 45.4708L66.8333 81.0589L54.4848 68.7429C51.453 65.7191 46.546 65.7191 43.5143 68.7429C40.4712 71.778 40.4712 76.7073 43.5143 79.7424L66.8333 103L113.486 56.4703C116.529 53.4352 116.529 48.5059 113.486 45.4708C110.454 42.447 105.547 42.447 102.515 45.4708Z" fill="#59DA88"/>
</svg>
