<svg width="30" height="30" viewBox="0 0 30 30" fill="none" xmlns="http://www.w3.org/2000/svg">
<path d="M7.5 6C4.18629 6 1.5 8.68629 1.5 12C1.5 14.3045 2.79919 16.3055 4.7051 17.3107C4.81145 16.1326 4.97727 15.6769 5.43423 15.1331C4.57265 14.462 4.00423 13.3096 4.00423 12.0006C4.00423 9.92892 5.42807 8.24945 7.18447 8.24945L18.3153 8.24945C20.0717 8.24945 21.4955 9.92892 21.4955 12.0006C21.4955 14.0724 20.0717 15.7518 18.3153 15.7518L11.1298 15.7518C10.4927 16.0701 9.94903 16.9947 10.0963 18H18C21.3137 18 24 15.3137 24 12C24 8.68629 21.3137 6 18 6L7.5 6Z" fill="#8397FF"/>
<path d="M12 12C8.68629 12 6 14.6863 6 18C6 21.3138 8.68629 24 12 24H22.5C25.8137 24 28.5 21.3138 28.5 18C28.5 15.7666 27.2796 13.8181 25.4693 12.7851C25.4376 13.9107 25.1965 14.394 24.8608 15.1283C25.5546 15.8164 25.9955 16.8478 25.9955 18.0007C25.9955 20.0724 24.5717 21.7519 22.8153 21.7519L11.6845 21.7519C9.92807 21.7519 8.50423 20.0724 8.50423 18.0007C8.50423 15.929 9.92807 14.2495 11.6845 14.2495H18.5767C19.2987 14.0315 19.9783 12.9413 19.9783 12L12 12Z" fill="#8397FF"/>
</svg>
