<svg width="76" height="76" viewBox="0 0 76 76" fill="none" xmlns="http://www.w3.org/2000/svg">
<path fill-rule="evenodd" clip-rule="evenodd" d="M63.9088 6.33325H12.0906C8.91076 6.33325 6.33301 9.16878 6.33301 12.6666V63.3333C6.33301 66.8311 8.91076 69.6666 12.0906 69.6666H15.833V72.8332H22.1663V69.6666H53.833V72.8332H60.1663V69.6666H63.9088C67.0886 69.6666 69.6664 66.8311 69.6664 63.3333V12.6666C69.6664 9.16878 67.0886 6.33325 63.9088 6.33325ZM10.8566 12.857C10.8566 11.7524 11.7521 10.857 12.8566 10.857H63.1424C64.2469 10.857 65.1424 11.7524 65.1424 12.857V18.9999H63.338C62.7857 18.9999 62.338 19.4476 62.338 19.9999V24.3332C62.338 24.8855 62.7857 25.3332 63.338 25.3332H65.1424V50.6666H63.338C62.7857 50.6666 62.338 51.1143 62.338 51.6666V55.9999C62.338 56.5522 62.7857 56.9999 63.338 56.9999H65.1424V63.1427C65.1424 64.2473 64.2469 65.1427 63.1424 65.1427H12.8566C11.7521 65.1427 10.8566 64.2473 10.8566 63.1427V12.857ZM54.658 50.1798C55.4391 50.9608 55.4391 52.2272 54.658 53.0082L53.0081 54.6581C52.2271 55.4392 50.9607 55.4392 50.1797 54.6581L44.4343 48.9128C42.5485 50.0271 40.3488 50.6666 37.9997 50.6666C35.6506 50.6666 33.4509 50.0271 31.5651 48.9128L25.8198 54.6581C25.0387 55.4392 23.7724 55.4392 22.9914 54.6581L21.3415 53.0082C20.5604 52.2272 20.5604 50.9608 21.3415 50.1798L27.0868 44.4345C25.9724 42.5487 25.333 40.349 25.333 37.9999C25.333 35.6508 25.9725 33.4511 27.0868 31.5653L21.3415 25.8199C20.5604 25.0388 20.5604 23.7725 21.3415 22.9915L22.9914 21.3415C23.7724 20.5605 25.0387 20.5605 25.8198 21.3415L31.5652 27.087C33.451 25.9727 35.6507 25.3333 37.9997 25.3333C40.3487 25.3333 42.5484 25.9727 44.4342 27.087L50.1797 21.3415C50.9607 20.5605 52.2271 20.5605 53.0081 21.3415L54.658 22.9915C55.4391 23.7725 55.4391 25.0388 54.658 25.8199L48.9126 31.5653C50.0269 33.4511 50.6663 35.6509 50.6663 37.9999C50.6663 40.3489 50.0269 42.5486 48.9126 44.4344L54.658 50.1798ZM44.333 37.9999C44.333 41.4977 41.4975 44.3333 37.9997 44.3333C34.5019 44.3333 31.6664 41.4977 31.6664 37.9999C31.6664 34.5021 34.5019 31.6666 37.9997 31.6666C41.4975 31.6666 44.333 34.5021 44.333 37.9999Z" fill="#8397FF"/>
</svg>
