<svg width="21" height="20" viewBox="0 0 21 20" fill="none" xmlns="http://www.w3.org/2000/svg">
<path fill-rule="evenodd" clip-rule="evenodd" d="M14.1981 1.66699C14.7437 1.66699 15.2668 1.88484 15.6487 2.26984L18.2328 4.85393C18.6176 5.23866 18.8337 5.76047 18.8337 6.30456C18.8337 6.84865 18.6176 7.37046 18.2328 7.75519L8.79825 17.1868C8.21618 17.8582 7.39108 18.2708 6.44583 18.3356H2.16699V17.5023L2.1697 13.9897C2.24069 13.111 2.64921 12.2939 3.27241 11.7448L12.7465 2.27085C13.1307 1.88435 13.6531 1.66699 14.1981 1.66699ZM6.38698 16.671C6.83216 16.6395 7.24656 16.4323 7.57932 16.0517L13.8809 9.7501L10.7523 6.62133L4.41374 12.9583C4.07612 13.2569 3.86725 13.6747 3.83366 14.0568V16.6694L6.38698 16.671ZM11.9309 5.44296L15.0594 8.57159L17.0543 6.57668C17.1265 6.50451 17.167 6.40662 17.167 6.30456C17.167 6.20249 17.1265 6.10461 17.0543 6.03244L14.4679 3.44604C14.3966 3.37411 14.2994 3.33366 14.1981 3.33366C14.0968 3.33366 13.9997 3.37411 13.9283 3.44604L11.9309 5.44296Z" fill="#8397FF"/>
</svg>
