<svg width="22" height="18" viewBox="0 0 22 18" fill="none" xmlns="http://www.w3.org/2000/svg">
<path fill-rule="evenodd" clip-rule="evenodd" d="M20.8084 14.248C21.2665 14.5564 21.3879 15.1779 21.0794 15.636C20.771 16.0941 20.1496 16.2155 19.6914 15.9071L11.2226 10.2055L7.96741 12.3971C7.88839 12.4503 7.80451 12.4907 7.71821 12.5188C7.90094 12.9769 8.00142 13.4767 8.00142 14C8.00142 16.2091 6.21056 18 4.00142 18C1.79228 18 0.00142027 16.2091 0.00142036 14C0.00142046 11.7909 1.79228 10 4.00142 10C4.9977 10 5.90891 10.3642 6.60916 10.9668C6.67447 10.8799 6.75519 10.8022 6.85048 10.738L9.43202 9L6.85047 7.26199C6.75518 7.19784 6.67446 7.12015 6.60915 7.0332C5.90891 7.63577 4.9977 8 4.00142 8C1.79228 8 0.0014207 6.20914 0.0014208 4C0.0014209 1.79086 1.79228 -8.50524e-07 4.00142 -7.53959e-07C6.21056 -6.57395e-07 8.00142 1.79086 8.00142 4C8.00142 4.52329 7.90093 5.02311 7.7182 5.48122C7.8045 5.50933 7.88839 5.54974 7.96742 5.60295L11.2226 7.79449L19.6914 2.09294C20.1496 1.78451 20.771 1.90587 21.0794 2.364C21.3879 2.82213 21.2665 3.44356 20.8084 3.75199L13.0132 9L20.8084 14.248ZM4.00142 6C2.89685 6 2.00142 5.10457 2.00142 4C2.00142 2.89543 2.89685 2 4.00142 2C5.10599 2 6.00142 2.89543 6.00142 4C6.00142 5.10457 5.10599 6 4.00142 6ZM4.00142 16C2.89685 16 2.00142 15.1046 2.00142 14C2.00142 12.8954 2.89685 12 4.00142 12C5.10599 12 6.00142 12.8954 6.00142 14C6.00142 15.1046 5.10599 16 4.00142 16Z" fill="#8397FF"/>
</svg>
