<svg width="24" height="23" viewBox="0 0 24 23" fill="none" xmlns="http://www.w3.org/2000/svg">
<path d="M15.9529 13.2141C15.9529 13.9825 15.6904 14.6549 15.1654 15.2312C14.649 15.7983 13.9088 16.1734 12.9449 16.3564V17.8794H11.1245V16.425C10.479 16.3884 9.85934 16.2832 9.26548 16.1094C8.68022 15.9356 8.19394 15.7206 7.80664 15.4645L8.78781 13.1044C9.21814 13.3696 9.70012 13.5846 10.2337 13.7493C10.7674 13.9048 11.2795 13.9825 11.77 13.9825C12.1918 13.9825 12.493 13.9414 12.6737 13.859C12.8545 13.7676 12.9449 13.6349 12.9449 13.4611C12.9449 13.2599 12.8244 13.1089 12.5834 13.0083C12.351 12.9077 11.9637 12.7979 11.4215 12.679C10.7243 12.5235 10.1434 12.3588 9.6786 12.185C9.21384 12.0021 8.80932 11.7093 8.46505 11.3068C8.12079 10.8952 7.94865 10.3417 7.94865 9.64652C7.94865 8.84153 8.21976 8.15088 8.76199 7.57457C9.31282 6.99827 10.1003 6.63236 11.1245 6.47685V4.9812H12.9449V6.44941C13.9777 6.55003 14.8512 6.81531 15.5656 7.24526L14.649 9.59164C13.7625 9.11596 12.9233 8.87812 12.1315 8.87812C11.3483 8.87812 10.9567 9.07937 10.9567 9.48187C10.9567 9.67397 11.0729 9.82033 11.3053 9.92096C11.5377 10.0124 11.9207 10.1131 12.4543 10.2228C13.1428 10.36 13.7238 10.5201 14.1971 10.7031C14.6705 10.8769 15.0793 11.165 15.4236 11.5675C15.7765 11.97 15.9529 12.5189 15.9529 13.2141Z" fill="#49597B"/>
<path fill-rule="evenodd" clip-rule="evenodd" d="M8.23077 1.58441C8.56667 2.45946 8.11655 3.42785 7.32568 3.93091C6.305 4.58015 5.42921 5.4438 4.76327 6.46926C3.78728 7.97216 3.31212 9.74546 3.40591 11.535C3.4997 13.3246 4.15761 15.0385 5.28535 16.4311C6.05484 17.3814 7.01611 18.1487 8.09906 18.6877C8.93818 19.1054 9.48705 20.0214 9.24446 20.9268C9.00187 21.8321 8.06435 22.3804 7.20275 22.0114C5.43465 21.2541 3.86859 20.0751 2.6475 18.5672C1.06866 16.6175 0.147588 14.218 0.0162869 11.7127C-0.115014 9.20729 0.550201 6.72467 1.91659 4.62061C2.97337 2.99331 4.40761 1.65707 6.08686 0.719123C6.90517 0.262059 7.89487 0.709367 8.23077 1.58441Z" fill="#49597B"/>
<path fill-rule="evenodd" clip-rule="evenodd" d="M15.3698 1.58441C15.0339 2.45946 15.484 3.42785 16.2749 3.93091C17.2956 4.58015 18.1714 5.4438 18.8373 6.46926C19.8133 7.97216 20.2885 9.74546 20.1947 11.535C20.1009 13.3246 19.443 15.0385 18.3152 16.4311C17.5457 17.3814 16.5845 18.1487 15.5015 18.6877C14.6624 19.1054 14.1135 20.0214 14.3561 20.9268C14.5987 21.8321 15.5362 22.3804 16.3978 22.0114C18.1659 21.2541 19.732 20.0751 20.9531 18.5672C22.5319 16.6175 23.453 14.218 23.5843 11.7127C23.7156 9.20729 23.0504 6.72467 21.684 4.62061C20.6272 2.99331 19.193 1.65707 17.5137 0.719123C16.6954 0.262059 15.7057 0.709367 15.3698 1.58441Z" fill="#49597B"/>
</svg>
