<svg width="164" height="164" viewBox="0 0 164 164" fill="none" xmlns="http://www.w3.org/2000/svg">
<path fill-rule="evenodd" clip-rule="evenodd" d="M89.5797 61C89.5797 58.7909 87.7889 57 85.5797 57H82.0212C79.812 57 78.0212 58.7909 78.0212 61V93.4417C78.0212 95.6509 79.812 97.4417 82.0212 97.4417H85.5797C87.7889 97.4417 89.5797 95.6508 89.5797 93.4417V61ZM89.5586 108.997C89.5586 112.187 86.9711 114.774 83.7793 114.774C80.5875 114.774 78 112.187 78 108.997C78 105.806 80.5875 103.219 83.7793 103.219C86.9711 103.219 89.5586 105.806 89.5586 108.997Z" fill="#FF9F9F"/>
<path d="M91.2942 23.5C87.8301 17.5 79.1699 17.5 75.7058 23.5L18.1151 123.25C14.651 129.25 18.9811 136.75 25.9093 136.75H141.091C148.019 136.75 152.349 129.25 148.885 123.25L91.2942 23.5Z" stroke="#FF9F9F" stroke-width="8"/>
</svg>
